<svg xmlns="http://www.w3.org/2000/svg" viewBox="0 0 1200 720" font-family="Segoe UI, Helvetica Neue, Arial, sans-serif">
  <defs>
    <marker id="arrowGreen" markerWidth="10" markerHeight="7" refX="10" refY="3.5" orient="auto">
      <polygon points="0 0, 10 3.5, 0 7" fill="#00ff88"/>
    </marker>
    <marker id="arrowAmber" markerWidth="10" markerHeight="7" refX="10" refY="3.5" orient="auto">
      <polygon points="0 0, 10 3.5, 0 7" fill="#ffb300"/>
    </marker>
    <marker id="arrowPurple" markerWidth="10" markerHeight="7" refX="10" refY="3.5" orient="auto">
      <polygon points="0 0, 10 3.5, 0 7" fill="#aa77ee"/>
    </marker>
    <linearGradient id="headerGrad" x1="0" y1="0" x2="1" y2="0">
      <stop offset="0%" stop-color="#00ff88" stop-opacity="0.15"/>
      <stop offset="100%" stop-color="#00ff88" stop-opacity="0.05"/>
    </linearGradient>
  </defs>
  <rect width="1200" height="720" rx="8" fill="#0a0e14"/>
  <rect x="0" y="0" width="1200" height="48" rx="8" fill="url(#headerGrad)"/>
  <rect x="0" y="40" width="1200" height="8" fill="#0a0e14"/>
  <text x="24" y="32" fill="#00ff88" font-size="16" font-weight="700" letter-spacing="3">AVISOS</text>
  <text x="120" y="32" fill="#5a7a8a" font-size="12">System Architecture</text>
  <rect x="30" y="200" width="160" height="220" rx="6" fill="#111820" stroke="#00ff88" stroke-width="1.5"/>
  <rect x="30" y="200" width="160" height="30" rx="6" fill="#00ff88" fill-opacity="0.1"/>
  <rect x="30" y="224" width="160" height="6" fill="#111820"/>
  <text x="110" y="221" fill="#00ff88" font-size="12" font-weight="600" text-anchor="middle">Browser</text>
  <text x="110" y="252" fill="#8899aa" font-size="10" text-anchor="middle">React 19 + TypeScript</text>
  <text x="110" y="268" fill="#8899aa" font-size="10" text-anchor="middle">SCADA Dashboard</text>
  <rect x="44" y="284" width="132" height="22" rx="3" fill="#1a2332" stroke="#2a3a4a" stroke-width="0.5"/>
  <text x="110" y="299" fill="#7a99aa" font-size="9" text-anchor="middle">Nodes / Alarms / Health</text>
  <rect x="44" y="312" width="132" height="22" rx="3" fill="#1a2332" stroke="#2a3a4a" stroke-width="0.5"/>
  <text x="110" y="327" fill="#7a99aa" font-size="9" text-anchor="middle">xterm.js CLI Terminal</text>
  <rect x="44" y="340" width="132" height="22" rx="3" fill="#1a2332" stroke="#2a3a4a" stroke-width="0.5"/>
  <text x="110" y="355" fill="#7a99aa" font-size="9" text-anchor="middle">Live WebSocket Feed</text>
  <rect x="44" y="368" width="132" height="22" rx="3" fill="#1a2332" stroke="#2a3a4a" stroke-width="0.5"/>
  <text x="110" y="383" fill="#7a99aa" font-size="9" text-anchor="middle">Vite HMR (dev)</text>
  <rect x="310" y="72" width="300" height="480" rx="6" fill="#111820" stroke="#00ff88" stroke-width="1.5"/>
  <rect x="310" y="72" width="300" height="34" rx="6" fill="#00ff88" fill-opacity="0.12"/>
  <rect x="310" y="100" width="300" height="6" fill="#111820"/>
  <text x="460" y="95" fill="#00ff88" font-size="13" font-weight="600" text-anchor="middle">Controller Service</text>
  <text x="460" y="124" fill="#5a7a8a" font-size="10" text-anchor="middle">Spring Boot 3.4.1 / Java 25 / :8080</text>
  <rect x="324" y="140" width="130" height="40" rx="4" fill="#1a2332" stroke="#00cc6a" stroke-width="1"/>
  <text x="389" y="156" fill="#00ff88" font-size="10" font-weight="600" text-anchor="middle">REST API</text>
  <text x="389" y="171" fill="#6a8a9a" font-size="9" text-anchor="middle">/api/*</text>
  <rect x="466" y="140" width="130" height="40" rx="4" fill="#1a2332" stroke="#00cc6a" stroke-width="1"/>
  <text x="531" y="156" fill="#00ff88" font-size="10" font-weight="600" text-anchor="middle">WebSocket</text>
  <text x="531" y="171" fill="#6a8a9a" font-size="9" text-anchor="middle">STOMP / SockJS</text>
  <rect x="324" y="192" width="130" height="40" rx="4" fill="#1a2332" stroke="#ffb300" stroke-width="1"/>
  <text x="389" y="208" fill="#ffb300" font-size="10" font-weight="600" text-anchor="middle">Telemetry Ingress</text>
  <text x="389" y="223" fill="#6a8a9a" font-size="9" text-anchor="middle">MQTT Subscriber</text>
  <rect x="466" y="192" width="130" height="40" rx="4" fill="#1a2332" stroke="#00cc6a" stroke-width="1"/>
  <text x="531" y="208" fill="#00ff88" font-size="10" font-weight="600" text-anchor="middle">CLI Bridge</text>
  <text x="531" y="223" fill="#6a8a9a" font-size="9" text-anchor="middle">BufferingCliClient</text>
  <rect x="324" y="244" width="130" height="40" rx="4" fill="#1a2332" stroke="#ff3333" stroke-width="1"/>
  <text x="389" y="260" fill="#ff3333" font-size="10" font-weight="600" text-anchor="middle">Alarm Engine</text>
  <text x="389" y="275" fill="#6a8a9a" font-size="9" text-anchor="middle">Severity Evaluation</text>
  <rect x="466" y="244" width="130" height="40" rx="4" fill="#1a2332" stroke="#ffb300" stroke-width="1"/>
  <text x="531" y="260" fill="#ffb300" font-size="10" font-weight="600" text-anchor="middle">Vision Client</text>
  <text x="531" y="275" fill="#6a8a9a" font-size="9" text-anchor="middle">Object Detection</text>
  <rect x="324" y="296" width="130" height="40" rx="4" fill="#1a2332" stroke="#ff3333" stroke-width="1"/>
  <text x="389" y="312" fill="#ff3333" font-size="10" font-weight="600" text-anchor="middle">Threat Detector</text>
  <text x="389" y="327" fill="#6a8a9a" font-size="9" text-anchor="middle">Label Matching</text>
  <rect x="466" y="296" width="130" height="40" rx="4" fill="#1a2332" stroke="#00cc6a" stroke-width="1"/>
  <text x="531" y="312" fill="#00ff88" font-size="10" font-weight="600" text-anchor="middle">Node Manager</text>
  <text x="531" y="327" fill="#6a8a9a" font-size="9" text-anchor="middle">Registration / Stale</text>
  <rect x="324" y="348" width="272" height="34" rx="4" fill="#1a2332" stroke="#5a7abb" stroke-width="1"/>
  <text x="460" y="370" fill="#7a9abb" font-size="10" font-weight="600" text-anchor="middle">Event Broadcaster (Events -> STOMP)</text>
  <rect x="324" y="394" width="130" height="34" rx="4" fill="#1a2332" stroke="#8855cc" stroke-width="1"/>
  <text x="389" y="416" fill="#aa77ee" font-size="10" font-weight="600" text-anchor="middle">Auth / Argon2id</text>
  <rect x="466" y="394" width="130" height="34" rx="4" fill="#1a2332" stroke="#5a7abb" stroke-width="1"/>
  <text x="531" y="416" fill="#7a9abb" font-size="10" font-weight="600" text-anchor="middle">JDBI Repositories</text>
  <rect x="324" y="440" width="272" height="34" rx="4" fill="#1a2332" stroke="#ffb300" stroke-width="1"/>
  <text x="460" y="462" fill="#ffb300" font-size="10" font-weight="600" text-anchor="middle">Notification Service (AWS SNS)</text>
  <rect x="324" y="486" width="272" height="34" rx="4" fill="#1a2332" stroke="#00cc6a" stroke-width="1"/>
  <text x="460" y="508" fill="#00ff88" font-size="10" font-weight="600" text-anchor="middle">System Health Monitor</text>
  <rect x="730" y="180" width="160" height="120" rx="6" fill="#111820" stroke="#ffb300" stroke-width="1.5"/>
  <rect x="730" y="180" width="160" height="30" rx="6" fill="#ffb300" fill-opacity="0.1"/>
  <rect x="730" y="204" width="160" height="6" fill="#111820"/>
  <text x="810" y="201" fill="#ffb300" font-size="12" font-weight="600" text-anchor="middle">MQTT Broker</text>
  <text x="810" y="232" fill="#8899aa" font-size="10" text-anchor="middle">Eclipse Mosquitto</text>
  <text x="810" y="250" fill="#5a7a8a" font-size="10" text-anchor="middle">:1883</text>
  <rect x="744" y="262" width="132" height="24" rx="3" fill="#1a2332" stroke="#2a3a4a" stroke-width="0.5"/>
  <text x="810" y="279" fill="#7a99aa" font-size="9" text-anchor="middle">avisos/telemetry/#</text>
  <rect x="1000" y="150" width="170" height="220" rx="6" fill="#111820" stroke="#00ff88" stroke-width="1.5"/>
  <rect x="1000" y="150" width="170" height="30" rx="6" fill="#00ff88" fill-opacity="0.1"/>
  <rect x="1000" y="174" width="170" height="6" fill="#111820"/>
  <text x="1085" y="171" fill="#00ff88" font-size="12" font-weight="600" text-anchor="middle">Node Service</text>
  <text x="1085" y="200" fill="#5a7a8a" font-size="10" text-anchor="middle">Java 25 / Custom IoC</text>
  <rect x="1014" y="216" width="142" height="22" rx="3" fill="#1a2332" stroke="#2a3a4a" stroke-width="0.5"/>
  <text x="1085" y="231" fill="#7a99aa" font-size="9" text-anchor="middle">HeartbeatService (30s)</text>
  <rect x="1014" y="244" width="142" height="22" rx="3" fill="#1a2332" stroke="#2a3a4a" stroke-width="0.5"/>
  <text x="1085" y="259" fill="#7a99aa" font-size="9" text-anchor="middle">Battery Monitor (OSHI)</text>
  <rect x="1014" y="272" width="142" height="22" rx="3" fill="#1a2332" stroke="#2a3a4a" stroke-width="0.5"/>
  <text x="1085" y="287" fill="#7a99aa" font-size="9" text-anchor="middle">Telemetry Publisher</text>
  <rect x="1014" y="300" width="142" height="22" rx="3" fill="#1a2332" stroke="#2a3a4a" stroke-width="0.5"/>
  <text x="1085" y="315" fill="#7a99aa" font-size="9" text-anchor="middle">ReactiveBufferMgr</text>
  <rect x="1014" y="328" width="142" height="22" rx="3" fill="#1a2332" stroke="#2a3a4a" stroke-width="0.5"/>
  <text x="1085" y="343" fill="#7a99aa" font-size="9" text-anchor="middle">Protobuf Serialization</text>
  <ellipse cx="380" cy="612" rx="58" ry="13" fill="#1a2332" stroke="#7a9abb" stroke-width="1.5"/>
  <rect x="322" y="612" width="116" height="38" fill="#1a2332"/>
  <line x1="322" y1="612" x2="322" y2="650" stroke="#7a9abb" stroke-width="1.5"/>
  <line x1="438" y1="612" x2="438" y2="650" stroke="#7a9abb" stroke-width="1.5"/>
  <ellipse cx="380" cy="650" rx="58" ry="13" fill="#1a2332" stroke="#7a9abb" stroke-width="1.5"/>
  <ellipse cx="380" cy="612" rx="58" ry="13" fill="#1a2332" stroke="#7a9abb" stroke-width="1.5"/>
  <text x="380" y="636" fill="#7a9abb" font-size="11" font-weight="600" text-anchor="middle">SQLite</text>
  <text x="380" y="650" fill="#5a7a8a" font-size="9" text-anchor="middle">SQLite/JDBI</text>
  <rect x="520" y="600" width="160" height="70" rx="6" fill="#111820" stroke="#ffb300" stroke-width="1.5"/>
  <rect x="520" y="600" width="160" height="28" rx="6" fill="#ffb300" fill-opacity="0.1"/>
  <rect x="520" y="622" width="160" height="6" fill="#111820"/>
  <text x="600" y="620" fill="#ffb300" font-size="11" font-weight="600" text-anchor="middle">CodeProject.AI</text>
  <text x="600" y="646" fill="#8899aa" font-size="10" text-anchor="middle">Object Detection</text>
  <text x="600" y="662" fill="#5a7a8a" font-size="10" text-anchor="middle">:32168</text>
  <rect x="730" y="600" width="160" height="70" rx="6" fill="#111820" stroke="#8855cc" stroke-width="1.5"/>
  <rect x="730" y="600" width="160" height="28" rx="6" fill="#8855cc" fill-opacity="0.1"/>
  <rect x="730" y="622" width="160" height="6" fill="#111820"/>
  <text x="810" y="620" fill="#aa77ee" font-size="11" font-weight="600" text-anchor="middle">LocalStack</text>
  <text x="810" y="646" fill="#8899aa" font-size="10" text-anchor="middle">AWS SNS Emulation</text>
  <text x="810" y="662" fill="#5a7a8a" font-size="10" text-anchor="middle">:4567</text>
  <rect x="1000" y="440" width="170" height="56" rx="6" fill="#111820" stroke="#5a7a8a" stroke-width="1" stroke-dasharray="4,3"/>
  <text x="1085" y="466" fill="#5a7a8a" font-size="11" font-weight="600" text-anchor="middle">avisos-common-lib</text>
  <text x="1085" y="484" fill="#4a5a6a" font-size="9" text-anchor="middle">telemetry.proto / Protobuf</text>
  <rect x="940" y="600" width="230" height="70" rx="6" fill="#111820" stroke="#2a3a4a" stroke-width="1" stroke-dasharray="6,3"/>
  <text x="1055" y="626" fill="#5a7a8a" font-size="11" font-weight="600" text-anchor="middle">Docker Compose</text>
  <text x="1055" y="646" fill="#4a5a6a" font-size="9" text-anchor="middle">controller | node-01 | mosquitto</text>
  <text x="1055" y="662" fill="#4a5a6a" font-size="9" text-anchor="middle">vision-api | localstack</text>
  <line x1="190" y1="280" x2="308" y2="160" stroke="#00ff88" stroke-width="1.5" marker-end="url(#arrowGreen)" opacity="0.8"/>
  <rect x="214" y="202" width="50" height="16" rx="3" fill="#0a0e14" stroke="#00ff88" stroke-width="0.5"/>
  <text x="239" y="214" fill="#00ff88" font-size="8" font-weight="600" text-anchor="middle">HTTP</text>
  <line x1="190" y1="340" x2="308" y2="260" stroke="#00ff88" stroke-width="1.5" stroke-dasharray="6,3" marker-end="url(#arrowGreen)" opacity="0.8"/>
  <rect x="210" y="292" width="56" height="16" rx="3" fill="#0a0e14" stroke="#00ff88" stroke-width="0.5"/>
  <text x="238" y="304" fill="#00ff88" font-size="8" font-weight="600" text-anchor="middle">STOMP</text>
  <line x1="612" y1="212" x2="728" y2="238" stroke="#ffb300" stroke-width="1.5" marker-end="url(#arrowAmber)" opacity="0.8"/>
  <rect x="640" y="208" width="62" height="16" rx="3" fill="#0a0e14" stroke="#ffb300" stroke-width="0.5"/>
  <text x="671" y="220" fill="#ffb300" font-size="8" font-weight="600" text-anchor="middle">Subscribe</text>
  <line x1="998" y1="260" x2="892" y2="244" stroke="#ffb300" stroke-width="1.5" marker-end="url(#arrowAmber)" opacity="0.8"/>
  <rect x="912" y="234" width="56" height="16" rx="3" fill="#0a0e14" stroke="#ffb300" stroke-width="0.5"/>
  <text x="940" y="246" fill="#ffb300" font-size="8" font-weight="600" text-anchor="middle">Publish</text>
  <text x="810" y="318" fill="#5a7a8a" font-size="9" text-anchor="middle">MQTT / Protobuf</text>
  <line x1="390" y1="552" x2="380" y2="597" stroke="#7a9abb" stroke-width="1.2" marker-end="url(#arrowGreen)" opacity="0.6"/>
  <text x="396" y="580" fill="#5a7a8a" font-size="8">JDBI</text>
  <line x1="500" y1="552" x2="570" y2="598" stroke="#ffb300" stroke-width="1.2" marker-end="url(#arrowAmber)" opacity="0.6"/>
  <text x="522" y="582" fill="#5a7a8a" font-size="8">REST</text>
  <line x1="560" y1="552" x2="770" y2="598" stroke="#aa77ee" stroke-width="1.2" marker-end="url(#arrowPurple)" opacity="0.6"/>
  <text x="680" y="574" fill="#5a7a8a" font-size="8">AWS SDK</text>
  <line x1="1000" y1="468" x2="612" y2="430" stroke="#5a7a8a" stroke-width="0.8" stroke-dasharray="4,4" opacity="0.4"/>
  <line x1="1085" y1="440" x2="1085" y2="372" stroke="#5a7a8a" stroke-width="0.8" stroke-dasharray="4,4" opacity="0.4"/>
  <rect x="24" y="470" width="170" height="120" rx="4" fill="#111820" stroke="#2a3a4a" stroke-width="0.5"/>
  <text x="36" y="490" fill="#5a7a8a" font-size="10" font-weight="600">LEGEND</text>
  <line x1="36" y1="506" x2="66" y2="506" stroke="#00ff88" stroke-width="1.5"/>
  <text x="74" y="510" fill="#7a99aa" font-size="9">HTTP / WebSocket</text>
  <line x1="36" y1="524" x2="66" y2="524" stroke="#ffb300" stroke-width="1.5"/>
  <text x="74" y="528" fill="#7a99aa" font-size="9">MQTT / Data Flow</text>
  <line x1="36" y1="542" x2="66" y2="542" stroke="#aa77ee" stroke-width="1.5"/>
  <text x="74" y="546" fill="#7a99aa" font-size="9">Cloud Services</text>
  <line x1="36" y1="560" x2="66" y2="560" stroke="#5a7a8a" stroke-width="0.8" stroke-dasharray="4,4"/>
  <text x="74" y="564" fill="#7a99aa" font-size="9">Shared Library</text>
  <line x1="36" y1="578" x2="66" y2="578" stroke="#00ff88" stroke-width="1.5" stroke-dasharray="6,3"/>
  <text x="74" y="582" fill="#7a99aa" font-size="9">Bidirectional</text>
  <text x="1176" y="708" fill="#2a3a4a" font-size="9" text-anchor="end">AVISOS v2.0</text>
</svg>
